<mxfile host="app.diagrams.net" modified="2023-06-07T00:13:39.488Z" agent="Mozilla/5.0 (Windows NT 10.0; Win64; x64) AppleWebKit/537.36 (KHTML, like Gecko) Chrome/113.0.0.0 Safari/537.36 Edg/113.0.1774.57" version="21.3.7" etag="lGrf3QJHTiVQdica-Ve7" type="github">
  <diagram name="PÃ¡gina-1" id="GvLGwXD30q0MJL_Sj6Sb">
    <mxGraphModel>
      <root>
        <mxCell id="0" />
        <mxCell id="1" parent="0" />
      </root>
    </mxGraphModel>
  </diagram>
</mxfile>
